<?xml version="1.0" encoding="utf-8"?>
<!-- Generator: Adobe Illustrator 21.0.2, SVG Export Plug-In . SVG Version: 6.00 Build 0)  -->
<svg version="1.1" xmlns="http://www.w3.org/2000/svg" xmlns:xlink="http://www.w3.org/1999/xlink" x="0px" y="0px"
	 viewBox="0 0 150 150" style="enable-background:new 0 0 150 150;" xml:space="preserve">
<style type="text/css">
	.st0{filter:url(#Adobe_OpacityMaskFilter);}
	.st1{mask:url(#SVGID_1_);}
	.st2{opacity:0.35;clip-path:url(#SVGID_5_);}
	.st3{fill:#FFFFFF;}
	.st4{fill:#F07E1B;}
</style>
<g id="Capa_1">
	<g>
		<defs>
			<filter id="Adobe_OpacityMaskFilter" filterUnits="userSpaceOnUse" x="0" y="0" width="150" height="150">
				<feColorMatrix  type="matrix" values="1 0 0 0 0  0 1 0 0 0  0 0 1 0 0  0 0 0 1 0"/>
			</filter>
		</defs>
		<mask maskUnits="userSpaceOnUse" x="0" y="0" width="150" height="150" id="SVGID_1_">
			<g class="st0">
				<g>
					<defs>
						<rect id="SVGID_2_" x="-19.2" y="-17.1" width="188.9" height="170.2"/>
					</defs>
					<clipPath id="SVGID_3_">
						<use xlink:href="#SVGID_2_"  style="overflow:visible;"/>
					</clipPath>
					<g style="clip-path:url(#SVGID_3_);">
						
							<image style="overflow:visible;" width="364" height="328" xlink:href="C8BF4DEA.jpg"  transform="matrix(0.519 0 0 0.519 -19.2042 -17.1278)">
						</image>
					</g>
				</g>
			</g>
		</mask>
		<g class="st1">
			<g>
				<defs>
					<rect id="SVGID_4_" width="150" height="150"/>
				</defs>
				<clipPath id="SVGID_5_">
					<use xlink:href="#SVGID_4_"  style="overflow:visible;"/>
				</clipPath>
				<rect class="st2" width="150" height="150"/>
			</g>
		</g>
		<path class="st3" d="M16.3,75c0,32.5,26.3,58.8,58.8,58.8c32.5,0,58.8-26.3,58.8-58.8s-26.3-58.8-58.8-58.8
			C42.6,16.2,16.3,42.5,16.3,75 M6,75C6,36.8,36.9,5.9,75.1,5.9c38.2,0,69.1,30.9,69.1,69.1c0,38.2-30.9,69.1-69.1,69.1
			C36.9,144.1,6,113.2,6,75"/>
		<path class="st4" d="M12.8,75c0-34.4,27.9-62.3,62.3-62.3c34.4,0,62.3,27.9,62.3,62.3c0,34.4-27.9,62.3-62.3,62.3
			C40.7,137.3,12.8,109.4,12.8,75"/>
		<path class="st4" d="M75.1,137.6c-34.5,0-62.6-28.1-62.6-62.6c0-34.5,28.1-62.6,62.6-62.6c34.5,0,62.6,28.1,62.6,62.6
			C137.7,109.5,109.6,137.6,75.1,137.6z M75.1,13.4c-34,0-61.6,27.6-61.6,61.6c0,34,27.6,61.6,61.6,61.6c34,0,61.6-27.6,61.6-61.6
			C136.7,41.1,109.1,13.4,75.1,13.4z"/>
		<path class="st3" d="M110.1,27c0-6.2,5.1-11.3,11.3-11.3c6.2,0,11.3,5.1,11.3,11.3c0,6.2-5.1,11.3-11.3,11.3
			C115.1,38.3,110.1,33.2,110.1,27"/>
		<path class="st4" d="M115.3,27c0-3.4,2.7-6.1,6.1-6.1c3.4,0,6.1,2.7,6.1,6.1c0,3.4-2.7,6.1-6.1,6.1C118,33,115.3,30.3,115.3,27"/>
		<path class="st4" d="M121.4,33.3c-3.5,0-6.3-2.8-6.3-6.3c0-3.5,2.8-6.3,6.3-6.3c3.5,0,6.3,2.8,6.3,6.3
			C127.7,30.4,124.9,33.3,121.4,33.3z M121.4,21.6c-2.9,0-5.3,2.4-5.3,5.3c0,2.9,2.4,5.3,5.3,5.3c2.9,0,5.3-2.4,5.3-5.3
			C126.7,24,124.3,21.6,121.4,21.6z"/>
	</g>
	<g>
		<path class="st3" d="M44.4,103.9c0.4-0.4,0.8-0.7,1.3-0.9c0.5-0.2,1-0.3,1.5-0.3c0.5,0,1,0.1,1.5,0.3c0.5,0.2,0.9,0.5,1.3,0.9
			l0.5,0.5l-1.1,1.1l-0.6-0.5c-0.2-0.2-0.5-0.4-0.8-0.5c-0.3-0.1-0.6-0.2-0.9-0.2c-0.3,0-0.6,0.1-0.9,0.2c-0.3,0.1-0.6,0.3-0.8,0.5
			c-0.2,0.2-0.4,0.5-0.5,0.8c-0.1,0.3-0.2,0.6-0.2,0.9c0,0.3,0.1,0.6,0.2,0.9c0.1,0.3,0.3,0.6,0.5,0.8c0.5,0.5,1,0.7,1.7,0.7
			c0.3,0,0.6-0.1,0.9-0.2c0.3-0.1,0.6-0.3,0.8-0.5l0.6-0.5l1.1,1.1l-0.5,0.5c-0.4,0.4-0.8,0.7-1.3,0.9c-0.5,0.2-1,0.3-1.5,0.3
			c-0.5,0-1-0.1-1.5-0.3c-0.5-0.2-0.9-0.5-1.3-0.9c-0.4-0.4-0.7-0.8-0.9-1.3c-0.2-0.5-0.3-1-0.3-1.5c0-0.5,0.1-1,0.3-1.5
			C43.7,104.7,44,104.3,44.4,103.9"/>
		<path class="st3" d="M57.3,107.9l1.1,1.1l-0.5,0.5c-0.4,0.4-0.8,0.7-1.3,0.9c-0.5,0.2-1,0.3-1.5,0.3c-0.5,0-1-0.1-1.5-0.3
			c-0.5-0.2-0.9-0.5-1.3-0.9c-0.4-0.4-0.7-0.8-0.9-1.3c-0.2-0.5-0.3-1-0.3-1.5c0-0.5,0.1-1,0.3-1.5c0.2-0.5,0.5-0.9,0.9-1.3
			c0.4-0.4,0.8-0.7,1.3-0.9c0.5-0.2,1-0.3,1.5-0.3c0.5,0,1,0.1,1.5,0.3c0.5,0.2,0.9,0.5,1.3,0.9l0.5,0.5l-4.4,4.4
			c0.4,0.2,0.9,0.3,1.4,0.2c0.5-0.1,0.9-0.3,1.3-0.7L57.3,107.9z M53.4,105.1c-0.5,0.5-0.7,1-0.7,1.7c0,0.4,0.1,0.7,0.2,1
			c0.1-0.1,0.3-0.4,0.6-0.6c0.3-0.3,0.6-0.6,0.9-0.9c0.3-0.3,0.6-0.6,0.9-0.9c0.3-0.3,0.5-0.5,0.7-0.7c-0.4-0.2-0.9-0.3-1.4-0.2
			C54.2,104.5,53.7,104.7,53.4,105.1"/>
		<path class="st3" d="M58.9,106.7c0-0.6,0.1-1.1,0.3-1.5c0.2-0.5,0.5-0.9,0.8-1.2c0.4-0.4,0.8-0.6,1.3-0.8c0.5-0.2,1-0.3,1.5-0.3
			c0.6,0,1.1,0.1,1.5,0.3c0.5,0.2,0.9,0.5,1.3,0.8c0.4,0.4,0.6,0.8,0.8,1.2c0.2,0.5,0.3,1,0.3,1.5v4h-1.6v-4c0-0.3-0.1-0.6-0.2-0.9
			c-0.1-0.3-0.3-0.5-0.5-0.8c-0.2-0.2-0.5-0.4-0.8-0.5c-0.3-0.1-0.6-0.2-0.9-0.2c-0.3,0-0.6,0.1-0.9,0.2c-0.3,0.1-0.5,0.3-0.8,0.5
			c-0.2,0.2-0.4,0.5-0.5,0.8c-0.1,0.3-0.2,0.6-0.2,0.9v4h-1.6V106.7z"/>
		<path class="st3" d="M68.4,103.9c0.4-0.4,0.8-0.7,1.3-0.9c0.5-0.2,1-0.3,1.5-0.3c0.5,0,1,0.1,1.5,0.3c0.5,0.2,0.9,0.5,1.3,0.9
			l0.5,0.5l-1.1,1.1l-0.6-0.5c-0.2-0.2-0.5-0.4-0.8-0.5c-0.3-0.1-0.6-0.2-0.9-0.2c-0.3,0-0.6,0.1-0.9,0.2c-0.3,0.1-0.6,0.3-0.8,0.5
			c-0.2,0.2-0.4,0.5-0.5,0.8c-0.1,0.3-0.2,0.6-0.2,0.9c0,0.3,0.1,0.6,0.2,0.9c0.1,0.3,0.3,0.6,0.5,0.8c0.5,0.5,1,0.7,1.7,0.7
			c0.3,0,0.6-0.1,0.9-0.2c0.3-0.1,0.6-0.3,0.8-0.5l0.6-0.5l1.1,1.1l-0.5,0.5c-0.4,0.4-0.8,0.7-1.3,0.9c-0.5,0.2-1,0.3-1.5,0.3
			c-0.5,0-1-0.1-1.5-0.3c-0.5-0.2-0.9-0.5-1.3-0.9c-0.4-0.4-0.7-0.8-0.9-1.3c-0.2-0.5-0.3-1-0.3-1.5c0-0.5,0.1-1,0.3-1.5
			C67.8,104.7,68.1,104.3,68.4,103.9"/>
		<path class="st3" d="M75.2,106.7c0-0.6,0.1-1.1,0.3-1.5c0.2-0.5,0.5-0.9,0.8-1.2c0.4-0.4,0.8-0.6,1.3-0.8c0.5-0.2,1-0.3,1.5-0.3
			c0.6,0,1.1,0.1,1.5,0.3c0.5,0.2,0.9,0.5,1.3,0.8c0.4,0.4,0.6,0.8,0.8,1.2c0.2,0.5,0.3,1,0.3,1.5c0,0.5-0.1,1-0.3,1.5
			c-0.2,0.5-0.5,0.9-0.8,1.3c-0.4,0.4-0.8,0.7-1.3,0.9c-0.5,0.2-1,0.3-1.5,0.3c-0.5,0-1-0.1-1.5-0.3c-0.5-0.2-0.9-0.5-1.3-0.9
			c-0.4-0.4-0.6-0.8-0.8-1.3C75.3,107.8,75.2,107.3,75.2,106.7 M76.7,106.7c0,0.3,0.1,0.6,0.2,0.9c0.1,0.3,0.3,0.5,0.5,0.8
			c0.2,0.2,0.5,0.4,0.8,0.5c0.3,0.1,0.6,0.2,0.9,0.2c0.3,0,0.6-0.1,0.9-0.2c0.3-0.1,0.5-0.3,0.8-0.5c0.2-0.2,0.4-0.5,0.5-0.8
			c0.1-0.3,0.2-0.6,0.2-0.9c0-0.3-0.1-0.6-0.2-0.9c-0.1-0.3-0.3-0.5-0.5-0.8c-0.2-0.2-0.5-0.4-0.8-0.5c-0.3-0.1-0.6-0.2-0.9-0.2
			c-0.3,0-0.6,0.1-0.9,0.2c-0.3,0.1-0.6,0.3-0.8,0.5c-0.2,0.2-0.4,0.5-0.5,0.8C76.8,106.1,76.7,106.4,76.7,106.7"/>
		<path class="st3" d="M90.7,102.8v1.6h-4.8c-0.2,0-0.4,0.1-0.6,0.2c-0.2,0.2-0.2,0.3-0.2,0.6c0,0.2,0.1,0.4,0.2,0.6
			c0.2,0.2,0.3,0.2,0.6,0.2h3.2c0.3,0,0.6,0.1,0.9,0.2c0.3,0.1,0.5,0.3,0.8,0.5c0.2,0.2,0.4,0.5,0.5,0.8c0.1,0.3,0.2,0.6,0.2,0.9
			c0,0.3-0.1,0.6-0.2,0.9c-0.1,0.3-0.3,0.5-0.5,0.8c-0.2,0.2-0.5,0.4-0.8,0.5c-0.3,0.1-0.6,0.2-0.9,0.2h-4.8v-1.6h4.8
			c0.2,0,0.4-0.1,0.6-0.2c0.2-0.2,0.2-0.3,0.2-0.6c0-0.2-0.1-0.4-0.2-0.6c-0.2-0.2-0.3-0.2-0.6-0.2h-3.2c-0.3,0-0.6-0.1-0.9-0.2
			c-0.3-0.1-0.5-0.3-0.7-0.5c-0.2-0.2-0.4-0.5-0.5-0.8c-0.1-0.3-0.2-0.6-0.2-0.9c0-0.3,0.1-0.6,0.2-0.9c0.1-0.3,0.3-0.5,0.5-0.8
			c0.2-0.2,0.5-0.4,0.7-0.5c0.3-0.1,0.6-0.2,0.9-0.2H90.7z"/>
		<path class="st3" d="M99.8,102.8v3.9c0,0.5-0.1,1.1-0.3,1.5c-0.2,0.5-0.5,0.9-0.8,1.3c-0.4,0.4-0.8,0.6-1.3,0.9
			c-0.5,0.2-1,0.3-1.5,0.3c-0.5,0-1.1-0.1-1.5-0.3c-0.5-0.2-0.9-0.5-1.3-0.9c-0.4-0.4-0.6-0.8-0.8-1.3c-0.2-0.5-0.3-1-0.3-1.5v-3.9
			h1.6v3.9c0,0.3,0.1,0.6,0.2,0.9c0.1,0.3,0.3,0.6,0.5,0.8c0.2,0.2,0.5,0.4,0.8,0.5c0.3,0.1,0.6,0.2,0.9,0.2c0.3,0,0.6-0.1,0.9-0.2
			c0.3-0.1,0.5-0.3,0.8-0.5c0.2-0.2,0.4-0.5,0.5-0.8c0.1-0.3,0.2-0.6,0.2-0.9v-3.9H99.8z"/>
		<path class="st3" d="M108.2,99.6v7.1c0,0.5-0.1,1.1-0.3,1.5c-0.2,0.5-0.5,0.9-0.8,1.3c-0.3,0.4-0.8,0.6-1.3,0.9
			c-0.5,0.2-1,0.3-1.5,0.3c-0.5,0-1.1-0.1-1.5-0.3c-0.5-0.2-0.9-0.5-1.3-0.9c-0.4-0.4-0.6-0.8-0.9-1.3c-0.2-0.5-0.3-1-0.3-1.5
			c0-0.5,0.1-1.1,0.3-1.5c0.2-0.5,0.5-0.9,0.9-1.2c0.4-0.4,0.8-0.6,1.3-0.8c0.5-0.2,1-0.3,1.5-0.3h2.4v-3.2H108.2z M104.2,109.1
			c0.3,0,0.6-0.1,0.9-0.2c0.3-0.1,0.5-0.3,0.8-0.5c0.2-0.2,0.4-0.5,0.5-0.8c0.1-0.3,0.2-0.6,0.2-0.9v-2.4h-2.4
			c-0.3,0-0.6,0.1-0.9,0.2c-0.3,0.1-0.6,0.3-0.8,0.5c-0.2,0.2-0.4,0.5-0.5,0.8c-0.1,0.3-0.2,0.6-0.2,0.9c0,0.3,0.1,0.6,0.2,0.9
			c0.1,0.3,0.3,0.6,0.5,0.8c0.2,0.2,0.5,0.4,0.8,0.5C103.6,109,103.9,109.1,104.2,109.1"/>
	</g>
</g>
<g id="Layer_2">
	<path class="st3" d="M21.6,83.4c3.2,0,5.5-1.7,5.9-2.2c0.5-0.5,0.9-1.1,1.1-1.7c0.3-0.7,1-2.1,1-3.6V61.2h2.9v14.6
		c0,2.2-0.9,3.9-1.3,4.9c-0.5,1.1-3.1,5.3-9.2,5.3c-4,0-6-1.3-6-1.3l1.2-2.5C17.4,82.3,18.4,83.4,21.6,83.4z"/>
	<path class="st3" d="M61.1,64.5c3.4,0,6,1.6,7.2,5c0.4,1.2,0.3,2.7,0.3,3.9v9h-2.5v-10c0-3.4-2.1-5.3-5-5.3c-2.9,0-5,1.9-5,5.3v10
		h-2.5l0-21.2h2.5l0,5C56.8,65.6,58,64.5,61.1,64.5z"/>
	<path class="st3" d="M71.3,69.4c0.4-1.1,2.2-4.9,7-4.9c4.9,0,6.7,3.8,7.1,4.9c0.4,1.1,0.6,2.2,0.6,3.5v9.5h-2.6V72.3
		c0-0.7-0.1-1.4-0.4-2.1c-0.2-0.7-0.6-1.2-1-1.7c-0.4-0.5-0.9-0.9-1.5-1.2C80,67.1,79,67,78.3,67c-0.6,0-1.5,0.1-2.1,0.4
		c-0.6,0.3-1,0.7-1.5,1.2c-0.4,0.5-0.7,1.1-1,1.7c-0.2,0.7-0.4,1.3-0.4,2.1v10.1h-2.7v-9.5C70.7,71.7,70.9,70.5,71.3,69.4z"/>
	<path class="st3" d="M118.7,69.4c0.4-1.1,2.2-4.9,6.9-4.9c4.8,0,6.5,3.8,6.9,4.9c0.4,1.1,0.6,2.2,0.6,3.5v9.5h-2.6V72.3
		c0-0.7-0.1-1.4-0.3-2.1c-0.2-0.7-0.6-1.2-1-1.7c-0.4-0.5-0.9-0.9-1.4-1.2c-0.6-0.3-1.5-0.4-2.2-0.4c-0.6,0-1.5,0.1-2,0.4
		c-0.5,0.3-1,0.7-1.4,1.2c-0.4,0.5-0.7,1.1-1,1.7c-0.2,0.7-0.3,1.3-0.3,2.1v10.1h-2.7v-9.5C118.1,71.7,118.3,70.5,118.7,69.4z"/>
	<path class="st3" d="M116.1,70.1c-0.5-1.1-1.1-2-1.9-2.9c-0.8-0.8-1.8-1.5-2.8-1.9c-1.1-0.5-2.2-0.7-3.4-0.7
		c-1.2,0-2.3,0.2-3.4,0.7c-1.1,0.5-2,1.1-2.8,1.9c-0.8,0.8-1.4,1.8-1.9,2.9c-0.5,1.1-0.7,2.3-0.7,3.5c0,1.2,0.2,2.4,0.7,3.5
		c0.5,1.1,1.1,2.1,1.9,2.9c0.8,0.8,1.7,1.5,2.8,2c1.1,0.5,2.2,0.7,3.4,0.7c1.2,0,2.4-0.2,3.4-0.7c1.1-0.5,2-1.1,2.8-2
		c0.8-0.8,1.4-1.8,1.9-2.9c0.5-1.1,0.7-2.3,0.7-3.5C116.8,72.3,116.5,71.1,116.1,70.1z M107.9,80.2c-3.3,0-6-2.9-6-6.5
		c0-3.6,2.7-6.5,6-6.5s6,2.9,6,6.5C113.9,77.2,111.2,80.2,107.9,80.2z"/>
	<path class="st3" d="M51.5,70.1c-0.5-1.1-1.1-2-2-2.9c-0.8-0.8-1.8-1.5-2.9-1.9c-1.1-0.5-2.3-0.7-3.5-0.7c-1.2,0-2.4,0.2-3.5,0.7
		c-1.1,0.5-2.1,1.1-2.9,1.9c-0.8,0.8-1.5,1.8-1.9,2.9c-0.5,1.1-0.7,2.3-0.7,3.5c0,1.2,0.2,2.4,0.7,3.5c0.5,1.1,1.1,2.1,1.9,2.9
		c0.8,0.8,1.8,1.5,2.9,2c1.1,0.5,2.3,0.7,3.5,0.7c1.3,0,2.4-0.2,3.5-0.7c1.1-0.5,2.1-1.1,2.9-2c0.8-0.8,1.5-1.8,2-2.9
		c0.5-1.1,0.7-2.3,0.7-3.5C52.3,72.3,52,71.1,51.5,70.1z M43.2,80.2c-3.4,0-6.1-2.9-6.1-6.5c0-3.6,2.8-6.5,6.1-6.5
		c3.4,0,6.1,2.9,6.1,6.5C49.3,77.2,46.5,80.2,43.2,80.2z"/>
	<path class="st3" d="M98.3,66.2l-1.1,1.9c0,0-2-1.3-3.8-1.3c-1.8,0-3.4,0.9-3.4,2.4c0,1.9,2.9,2.6,3.9,3.1c0.9,0.4,4.8,2,4.8,5.3
		c0,3.4-2.9,5-5.7,5c-2.8,0-5.7-1.8-5.7-1.8l1.1-2c0,0,1.8,1.5,4.8,1.5c1.7,0,3.1-1.5,3.1-2.7c0-1.9-2.6-2.7-3.7-3.1
		c-1.2-0.5-5-1.4-5-5.3c0-2.4,2.4-4.7,5.7-4.7S98.3,66.2,98.3,66.2z"/>
</g>
</svg>
